<svg width="181" height="86" fill="none" xmlns="http://www.w3.org/2000/svg"><path fill-rule="evenodd" clip-rule="evenodd" d="M18.49 72.66a3.158 3.158 0 0 1-4.3-1.153 3.124 3.124 0 0 1 1.147-4.281l30.364-17.44a3.124 3.124 0 0 0 1.14-4.278 3.158 3.158 0 0 0-4.3-1.152l-5.165 2.967-8.2 4.71a3.158 3.158 0 0 1-4.3-1.153 3.124 3.124 0 0 1 1.147-4.281l8.2-4.71 13.054-7.498a3.124 3.124 0 0 0 1.147-4.281 3.158 3.158 0 0 0-4.276-1.166L14.373 46.045a3.158 3.158 0 0 1-4.3-1.152 3.124 3.124 0 0 1 1.147-4.281l16.696-9.59 34.944-20.07c10.53-6.049 24.008-2.438 30.103 8.065 6.096 10.503 2.5 23.92-8.03 29.97l-7.635 4.385-30.047 17.257a3.158 3.158 0 0 1-4.3-1.152 3.124 3.124 0 0 1 1.147-4.281l2.738-1.573 11.84-6.8a3.124 3.124 0 0 0 1.148-4.282 3.158 3.158 0 0 0-4.293-1.156L18.49 72.659z" fill="#F2A278"/><path d="M80.544 21.96c.608 0 1.104.2 1.488.6.4.4.6.92.6 1.56v12.84c0 .656-.192 1.184-.576 1.584-.384.4-.88.6-1.488.6-.72 0-1.264-.24-1.632-.72l-7.296-9.096v7.632c0 .656-.184 1.184-.552 1.584-.368.4-.864.6-1.488.6-.608 0-1.104-.2-1.488-.6-.384-.4-.576-.928-.576-1.584V24.12c0-.64.192-1.16.576-1.56.384-.4.88-.6 1.488-.6.688 0 1.224.24 1.608.72l7.296 9.072V24.12c0-.656.184-1.176.552-1.56.384-.4.88-.6 1.488-.6zM101.9 36.288c.144.304.216.6.216.888 0 .528-.216.976-.648 1.344a2.109 2.109 0 0 1-1.44.552 1.85 1.85 0 0 1-1.008-.288c-.304-.192-.544-.48-.72-.864l-1.08-2.424h-7.776L88.34 37.92c-.176.384-.424.672-.744.864a1.85 1.85 0 0 1-1.008.288c-.544 0-1.04-.184-1.488-.552-.432-.368-.648-.816-.648-1.344 0-.288.072-.584.216-.888l6.336-13.008c.208-.432.512-.76.912-.984a2.69 2.69 0 0 1 1.368-.36c.48 0 .928.12 1.344.36.416.224.728.552.936.984l6.336 13.008zm-6.168-4.104l-2.4-5.352-2.4 5.352h4.8zM105.998 39c-.656 0-1.16-.176-1.512-.528-.352-.352-.528-.856-.528-1.512V24.12c0-.656.176-1.16.528-1.512.352-.352.856-.528 1.512-.528h4.848c1.872 0 3.48.344 4.824 1.032 1.36.672 2.4 1.64 3.12 2.904.72 1.264 1.08 2.768 1.08 4.512 0 1.76-.36 3.28-1.08 4.56-.704 1.264-1.736 2.232-3.096 2.904-1.344.672-2.96 1.008-4.848 1.008h-4.848zm4.536-3.552c1.648 0 2.88-.4 3.696-1.2.832-.816 1.248-2.056 1.248-3.72 0-1.664-.416-2.896-1.248-3.696-.816-.8-2.048-1.2-3.696-1.2h-2.16v9.816h2.16zM124.704 39.144c-.672 0-1.208-.192-1.608-.576-.384-.4-.576-.936-.576-1.608V24.12c0-.656.192-1.176.576-1.56.4-.4.936-.6 1.608-.6.688 0 1.232.2 1.632.6.4.384.6.904.6 1.56v12.84c0 .672-.2 1.208-.6 1.608-.4.384-.944.576-1.632.576zM146.197 36.288c.144.304.216.6.216.888 0 .528-.216.976-.648 1.344a2.109 2.109 0 0 1-1.44.552 1.85 1.85 0 0 1-1.008-.288c-.304-.192-.544-.48-.72-.864l-1.08-2.424h-7.776l-1.104 2.424c-.176.384-.424.672-.744.864a1.85 1.85 0 0 1-1.008.288c-.544 0-1.04-.184-1.488-.552-.432-.368-.648-.816-.648-1.344 0-.288.072-.584.216-.888l6.336-13.008c.208-.432.512-.76.912-.984a2.69 2.69 0 0 1 1.368-.36c.48 0 .928.12 1.344.36.416.224.728.552.936.984l6.336 13.008zm-6.168-4.104l-2.4-5.352-2.4 5.352h4.8zM155.53 39.216c-2.448 0-4.312-.624-5.592-1.872-1.264-1.248-1.896-3.072-1.896-5.472V24.12c0-.656.192-1.176.576-1.56.4-.4.928-.6 1.584-.6s1.176.2 1.56.6c.4.384.6.904.6 1.56v7.92c0 1.216.272 2.152.816 2.808.544.656 1.328.984 2.352.984 1.024 0 1.808-.328 2.352-.984.544-.656.816-1.592.816-2.808v-7.92c0-.656.192-1.176.576-1.56.4-.4.928-.6 1.584-.6s1.184.2 1.584.6c.4.384.6.904.6 1.56v7.752c0 2.384-.648 4.208-1.944 5.472-1.28 1.248-3.136 1.872-5.568 1.872zM179.775 35.808c.352.4.528.84.528 1.32 0 .544-.216 1.024-.648 1.44-.416.4-.888.6-1.416.6-.56 0-1.048-.24-1.464-.72l-4.128-4.944-4.2 4.944c-.416.48-.896.72-1.44.72-.528 0-1.008-.208-1.44-.624-.416-.416-.624-.896-.624-1.44 0-.464.168-.896.504-1.296l4.608-5.328-4.488-5.208c-.352-.416-.528-.848-.528-1.296 0-.544.208-1.016.624-1.416.432-.416.92-.624 1.464-.624.56 0 1.048.24 1.464.72l4.056 4.8 4.032-4.8c.384-.48.856-.72 1.416-.72.544 0 1.024.208 1.44.624.432.4.648.872.648 1.416 0 .464-.168.896-.504 1.296l-4.488 5.208 4.584 5.328z" fill="#F5F2E8"/></svg>